<svg width="110" height="75" viewBox="0 0 110 75" fill="none" xmlns="http://www.w3.org/2000/svg">
<path d="M51.5698 37.5214C51.5698 43.2505 51.1141 48.3775 50.2026 52.9022C49.2912 57.3944 47.8263 61.2193 45.8081 64.3768C43.8224 67.5344 41.1857 69.9432 37.8979 71.6034C34.6102 73.2635 30.5737 74.0936 25.7886 74.0936C19.8315 74.0936 14.9487 72.6451 11.1401 69.7479C7.33154 66.8182 4.51579 62.6353 2.69287 57.1991C0.902507 51.7303 0.00732422 45.1711 0.00732422 37.5214C0.00732422 29.8065 0.821126 23.2147 2.44873 17.746C4.10889 12.2447 6.82699 8.02917 10.603 5.09949C14.3791 2.1698 19.4409 0.704956 25.7886 0.704956C31.7456 0.704956 36.6121 2.1698 40.3882 5.09949C44.1968 7.99662 47.0125 12.1958 48.8354 17.6971C50.6584 23.1659 51.5698 29.774 51.5698 37.5214ZM19.1968 37.5214C19.1968 42.1763 19.3595 46.0826 19.6851 49.2401C20.0431 52.3977 20.6942 54.774 21.6382 56.369C22.6147 57.9315 23.9982 58.7128 25.7886 58.7128C27.5789 58.7128 28.9461 57.9315 29.8901 56.369C30.8341 54.774 31.4852 52.4139 31.8433 49.2889C32.2013 46.1314 32.3804 42.2089 32.3804 37.5214C32.3804 32.8013 32.2013 28.8625 31.8433 25.705C31.4852 22.5474 30.8341 20.1711 29.8901 18.576C28.9461 16.9484 27.5789 16.1346 25.7886 16.1346C23.9982 16.1346 22.6147 16.9484 21.6382 18.576C20.6942 20.1711 20.0431 22.5474 19.6851 25.705C19.3595 28.8625 19.1968 32.8013 19.1968 37.5214ZM107.478 17.2089C107.478 20.5943 106.746 23.524 105.281 25.9979C103.848 28.4393 101.928 30.4413 99.519 32.0038C97.1427 33.5663 94.5386 34.7382 91.7065 35.5194V35.8124C97.4032 36.5285 101.798 38.2701 104.89 41.037C108.015 43.7714 109.578 47.6613 109.578 52.7069C109.578 56.6132 108.536 60.1939 106.453 63.4491C104.369 66.6718 101.13 69.2596 96.7358 71.2128C92.3413 73.1333 86.6935 74.0936 79.7925 74.0936C75.1701 74.0936 71.2313 73.7518 67.9761 73.0682C64.7209 72.3846 61.5633 71.4406 58.5034 70.2362V54.2206C61.5959 55.8156 64.7697 57.0038 68.0249 57.785C71.3127 58.5337 74.3075 58.9081 77.0093 58.9081C81.6968 58.9081 84.8869 58.2408 86.5796 56.9061C88.3049 55.5715 89.1675 53.7811 89.1675 51.535C89.1675 49.9074 88.7606 48.524 87.9468 47.3846C87.133 46.2453 85.6193 45.3664 83.4058 44.7479C81.2248 44.1294 78.0835 43.8202 73.9819 43.8202H69.5874V29.3182H74.0796C77.7254 29.3182 80.6063 28.9927 82.7222 28.3417C84.8706 27.6906 86.4168 26.8117 87.3608 25.705C88.3049 24.5656 88.7769 23.2635 88.7769 21.7987C88.7769 19.9107 88.0444 18.5109 86.5796 17.5995C85.1147 16.688 83.1779 16.2323 80.769 16.2323C78.6206 16.2323 76.6024 16.5253 74.7144 17.1112C72.8263 17.6971 71.1825 18.3482 69.7827 19.0643C68.383 19.7805 67.325 20.3664 66.6089 20.8221L58.6011 7.93152C61.5633 5.91329 64.9487 4.20431 68.7573 2.80457C72.5985 1.40483 77.6115 0.704956 83.7964 0.704956C91.1532 0.704956 96.9312 2.1698 101.13 5.09949C105.362 8.02917 107.478 12.0656 107.478 17.2089Z" fill="#F1F2F3"/>
</svg>
