<svg width="110" height="75" viewBox="0 0 110 75" fill="none" xmlns="http://www.w3.org/2000/svg">
<path d="M51.5698 37.5214C51.5698 43.2505 51.1141 48.3775 50.2026 52.9022C49.2912 57.3944 47.8263 61.2193 45.8081 64.3768C43.8224 67.5344 41.1857 69.9432 37.8979 71.6034C34.6102 73.2635 30.5737 74.0936 25.7886 74.0936C19.8315 74.0936 14.9487 72.6451 11.1401 69.7479C7.33154 66.8182 4.51579 62.6353 2.69287 57.1991C0.902507 51.7303 0.00732422 45.1711 0.00732422 37.5214C0.00732422 29.8065 0.821126 23.2147 2.44873 17.746C4.10889 12.2447 6.82699 8.02917 10.603 5.09949C14.3791 2.1698 19.4409 0.704956 25.7886 0.704956C31.7456 0.704956 36.6121 2.1698 40.3882 5.09949C44.1968 7.99662 47.0125 12.1958 48.8354 17.6971C50.6584 23.1659 51.5698 29.774 51.5698 37.5214ZM19.1968 37.5214C19.1968 42.1763 19.3595 46.0826 19.6851 49.2401C20.0431 52.3977 20.6942 54.774 21.6382 56.369C22.6147 57.9315 23.9982 58.7128 25.7886 58.7128C27.5789 58.7128 28.9461 57.9315 29.8901 56.369C30.8341 54.774 31.4852 52.4139 31.8433 49.2889C32.2013 46.1314 32.3804 42.2089 32.3804 37.5214C32.3804 32.8013 32.2013 28.8625 31.8433 25.705C31.4852 22.5474 30.8341 20.1711 29.8901 18.576C28.9461 16.9484 27.5789 16.1346 25.7886 16.1346C23.9982 16.1346 22.6147 16.9484 21.6382 18.576C20.6942 20.1711 20.0431 22.5474 19.6851 25.705C19.3595 28.8625 19.1968 32.8013 19.1968 37.5214ZM109.871 73.1171H58.064V60.4218L75.4956 42.7948C79.1089 39.0188 81.9084 35.9914 83.894 33.7128C85.9123 31.4341 87.3283 29.4973 88.1421 27.9022C88.9559 26.3072 89.3628 24.647 89.3628 22.9218C89.3628 20.8059 88.6792 19.2759 87.312 18.3319C85.9448 17.3879 84.3335 16.9159 82.478 16.9159C80.2319 16.9159 77.9533 17.5669 75.6421 18.869C73.3634 20.1385 70.7756 22.0266 67.8784 24.5331L57.2827 12.1307C59.4312 10.2102 61.7098 8.38725 64.1187 6.66199C66.5275 4.90417 69.3758 3.47188 72.6636 2.36511C75.9513 1.25834 79.9552 0.704956 84.6753 0.704956C89.5256 0.704956 93.7248 1.55131 97.2729 3.24402C100.854 4.93673 103.621 7.2642 105.574 10.2264C107.527 13.1561 108.503 16.4927 108.503 20.2362C108.503 24.3703 107.738 28.065 106.208 31.3202C104.711 34.5428 102.449 37.7818 99.4214 41.037C96.394 44.2596 92.618 47.9218 88.0933 52.0233L82.8687 56.7108V57.1991H109.871V73.1171Z" fill="#F1F2F3"/>
</svg>
