<svg width="113" height="75" viewBox="0 0 113 75" fill="none" xmlns="http://www.w3.org/2000/svg">
<path d="M51.5698 37.5214C51.5698 43.2505 51.1141 48.3775 50.2026 52.9022C49.2912 57.3944 47.8263 61.2193 45.8081 64.3768C43.8224 67.5344 41.1857 69.9432 37.8979 71.6034C34.6102 73.2635 30.5737 74.0936 25.7886 74.0936C19.8315 74.0936 14.9487 72.6451 11.1401 69.7479C7.33154 66.8182 4.51579 62.6353 2.69287 57.1991C0.902507 51.7303 0.00732422 45.1711 0.00732422 37.5214C0.00732422 29.8065 0.821126 23.2147 2.44873 17.746C4.10889 12.2447 6.82699 8.02917 10.603 5.09949C14.3791 2.1698 19.4409 0.704956 25.7886 0.704956C31.7456 0.704956 36.6121 2.1698 40.3882 5.09949C44.1968 7.99662 47.0125 12.1958 48.8354 17.6971C50.6584 23.1659 51.5698 29.774 51.5698 37.5214ZM19.1968 37.5214C19.1968 42.1763 19.3595 46.0826 19.6851 49.2401C20.0431 52.3977 20.6942 54.774 21.6382 56.369C22.6147 57.9315 23.9982 58.7128 25.7886 58.7128C27.5789 58.7128 28.9461 57.9315 29.8901 56.369C30.8341 54.774 31.4852 52.4139 31.8433 49.2889C32.2013 46.1314 32.3804 42.2089 32.3804 37.5214C32.3804 32.8013 32.2013 28.8625 31.8433 25.705C31.4852 22.5474 30.8341 20.1711 29.8901 18.576C28.9461 16.9484 27.5789 16.1346 25.7886 16.1346C23.9982 16.1346 22.6147 16.9484 21.6382 18.576C20.6942 20.1711 20.0431 22.5474 19.6851 25.705C19.3595 28.8625 19.1968 32.8013 19.1968 37.5214ZM112.166 59.2987H104.304V73.1171H85.2612V59.2987H56.7944V45.1385L86.4819 1.73035H104.304V44.8944H112.166V59.2987ZM85.2612 44.8944V36.5936C85.2612 35.8449 85.2775 34.9009 85.3101 33.7616C85.3426 32.6223 85.3752 31.483 85.4077 30.3436C85.4728 29.1718 85.5216 28.1952 85.5542 27.4139C85.6193 26.6001 85.6681 26.1607 85.7007 26.0956H85.1636C84.5451 27.5604 83.9754 28.7811 83.4546 29.7577C82.9338 30.7017 82.2502 31.8247 81.4038 33.1268L73.4937 44.8944H85.2612Z" fill="#F1F2F3"/>
</svg>
