<svg width="71" height="71" viewBox="0 0 71 71" fill="none" xmlns="http://www.w3.org/2000/svg">
<rect x="0.681641" y="0.617065" width="70" height="70" rx="35" fill="#B6F1FF"/>
<g clip-path="url(#clip0_2311_278)">
<path d="M42.9765 39.4946C43.6102 37.9936 43.8562 36.4301 43.7145 34.804C43.5727 33.1779 43.0766 31.6811 42.226 30.3135C41.3587 28.9126 40.1996 27.7952 38.7487 26.9613C37.181 26.044 35.4965 25.5937 33.6953 25.6104C31.9441 25.6271 30.3097 26.069 28.792 26.9363L27.5412 24.7598C28.792 24.0427 30.1304 23.5549 31.5564 23.2964C32.9823 23.0378 34.4041 23.0337 35.8217 23.2838C37.306 23.534 38.6986 24.0343 39.9995 24.7848C41.8341 25.8522 43.3017 27.2865 44.4024 29.0877C45.4698 30.8222 46.0786 32.7151 46.2287 34.7665C46.3788 36.8512 46.0202 38.8442 45.1529 40.7455L46.8291 41.7211L41.6256 44.498L41.4004 38.594L42.9765 39.4946ZM24.5142 31.7395C23.8804 33.2405 23.6344 34.804 23.7762 36.4301C23.918 38.0562 24.4141 39.553 25.2647 40.9206C26.1319 42.3215 27.291 43.4389 28.742 44.2728C30.3097 45.1901 31.9942 45.6404 33.7954 45.6237C35.5465 45.607 37.181 45.1651 38.6986 44.2978L39.9495 46.4743C38.6986 47.1914 37.3602 47.6793 35.9343 47.9378C34.5083 48.1963 33.0866 48.2004 31.669 47.9503C30.1846 47.7001 28.792 47.1998 27.4912 46.4493C25.6566 45.3819 24.189 43.9476 23.0882 42.1464C22.0209 40.4119 21.4121 38.519 21.262 36.4676C21.1119 34.3829 21.4705 32.3899 22.3377 30.4886L20.6616 29.513L25.8651 26.7361L26.0902 32.6401L24.5142 31.7395ZM29.3674 38.1187H36.247C36.4138 38.1187 36.5597 38.0562 36.6848 37.9311C36.8099 37.806 36.8724 37.6601 36.8724 37.4933C36.8724 37.3265 36.8099 37.1806 36.6848 37.0555C36.5597 36.9304 36.4138 36.8679 36.247 36.8679H31.2437C30.6766 36.8679 30.1554 36.7261 29.6801 36.4426C29.2048 36.1591 28.8254 35.7797 28.5419 35.3044C28.2583 34.829 28.1166 34.3079 28.1166 33.7408C28.1166 33.1738 28.2583 32.6526 28.5419 32.1773C28.8254 31.702 29.2048 31.3225 29.6801 31.039C30.1554 30.7555 30.6766 30.6137 31.2437 30.6137H32.4945V29.3629H34.9962V30.6137H38.1233V33.1154H31.2437C31.0769 33.1154 30.931 33.1779 30.8059 33.303C30.6808 33.4281 30.6183 33.574 30.6183 33.7408C30.6183 33.9076 30.6808 34.0535 30.8059 34.1786C30.931 34.3037 31.0769 34.3662 31.2437 34.3662H36.247C36.814 34.3662 37.3352 34.508 37.8105 34.7915C38.2859 35.075 38.6653 35.4545 38.9488 35.9298C39.2323 36.4051 39.3741 36.9263 39.3741 37.4933C39.3741 38.0604 39.2323 38.5815 38.9488 39.0569C38.6653 39.5322 38.2859 39.9116 37.8105 40.1951C37.3352 40.4786 36.814 40.6204 36.247 40.6204H34.9962V41.8712H32.4945V40.6204H29.3674V38.1187Z" fill="#30CBF1"/>
</g>
<defs>
<clipPath id="clip0_2311_278">
<rect width="30.02" height="31" fill="white" transform="matrix(1 0 0 -1 20.6616 51.1171)"/>
</clipPath>
</defs>
</svg>
