<svg width="35" height="35" viewBox="0 0 35 35" fill="none" xmlns="http://www.w3.org/2000/svg">
<g clip-path="url(#clip0_2311_58)">
<path d="M14.8381 31.2837C12.9114 31.2837 11.0697 30.9154 9.31305 30.1787C7.63194 29.4609 6.135 28.4456 4.82222 27.1329C3.50944 25.8201 2.49416 24.3231 1.77639 22.642C1.03972 20.8854 0.671387 19.0437 0.671387 17.117C0.671387 15.1904 1.03972 13.3487 1.77639 11.592C2.49416 9.91091 3.50944 8.41397 4.82222 7.10119C6.135 5.78841 7.63194 4.77313 9.31305 4.05536C11.0697 3.31869 12.9114 2.95036 14.8381 2.95036C16.7647 2.95036 18.6064 3.31869 20.3631 4.05536C22.0442 4.77313 23.5411 5.78841 24.8539 7.10119C26.1667 8.41397 27.1819 9.91091 27.8997 11.592C28.6364 13.3487 29.0047 15.1904 29.0047 17.117C29.0047 19.0437 28.6364 20.8854 27.8997 22.642C27.1819 24.3231 26.1667 25.8201 24.8539 27.1329C23.5411 28.4456 22.0442 29.4609 20.3631 30.1787C18.6064 30.9154 16.7647 31.2837 14.8381 31.2837ZM14.8381 28.4504C16.8969 28.4504 18.8047 27.9309 20.5614 26.892C22.2614 25.8909 23.6119 24.5404 24.6131 22.8404C25.6519 21.0837 26.1714 19.1759 26.1714 17.117C26.1714 15.0581 25.6519 13.1504 24.6131 11.3937C23.6119 9.69369 22.2614 8.34314 20.5614 7.34202C18.8047 6.30313 16.8969 5.78369 14.8381 5.78369C12.7792 5.78369 10.8714 6.30313 9.11472 7.34202C7.41472 8.34314 6.06416 9.69369 5.06305 11.3937C4.02416 13.1504 3.50472 15.0581 3.50472 17.117C3.50472 19.1759 4.02416 21.0837 5.06305 22.8404C6.06416 24.5404 7.41472 25.8909 9.11472 26.892C10.8714 27.9309 12.7792 28.4504 14.8381 28.4504ZM9.87972 19.9504H17.6714C17.8603 19.9504 18.0256 19.8795 18.1672 19.7379C18.3089 19.5962 18.3797 19.4309 18.3797 19.242C18.3797 19.0531 18.3089 18.8879 18.1672 18.7462C18.0256 18.6045 17.8603 18.5337 17.6714 18.5337H12.0047C11.3625 18.5337 10.7722 18.3731 10.2339 18.052C9.69555 17.7309 9.26583 17.3012 8.94472 16.7629C8.62361 16.2245 8.46305 15.6342 8.46305 14.992C8.46305 14.3498 8.62361 13.7595 8.94472 13.2212C9.26583 12.6829 9.69555 12.2531 10.2339 11.932C10.7722 11.6109 11.3625 11.4504 12.0047 11.4504H13.4214V8.61702H16.2547V11.4504H19.7964V14.2837H12.0047C11.8158 14.2837 11.6506 14.3545 11.5089 14.4962C11.3672 14.6379 11.2964 14.8031 11.2964 14.992C11.2964 15.1809 11.3672 15.3462 11.5089 15.4879C11.6506 15.6295 11.8158 15.7004 12.0047 15.7004H17.6714C18.3136 15.7004 18.9039 15.8609 19.4422 16.182C19.9806 16.5031 20.4103 16.9329 20.7314 17.4712C21.0525 18.0095 21.2131 18.5998 21.2131 19.242C21.2131 19.8842 21.0525 20.4745 20.7314 21.0129C20.4103 21.5512 19.9806 21.9809 19.4422 22.302C18.9039 22.6231 18.3136 22.7837 17.6714 22.7837H16.2547V25.617H13.4214V22.7837H9.87972V19.9504Z" fill="white"/>
</g>
<defs>
<clipPath id="clip0_2311_58">
<rect width="34.02" height="34" fill="white" transform="matrix(1 0 0 -1 0.661621 34.1171)"/>
</clipPath>
</defs>
</svg>
