<svg width="71" height="71" viewBox="0 0 71 71" fill="none" xmlns="http://www.w3.org/2000/svg">
<rect x="0.681641" y="0.617065" width="70" height="70" rx="35" fill="#FFD0B6"/>
<g clip-path="url(#clip0_2311_288)">
<path d="M34.4208 45.6238V48.1254H31.9191V45.6238H21.9125C21.5622 45.6238 21.2662 45.5028 21.0244 45.261C20.7825 45.0192 20.6616 44.7232 20.6616 44.3729V24.3596C20.6616 24.0094 20.7825 23.7133 21.0244 23.4715C21.2662 23.2297 21.5622 23.1088 21.9125 23.1088H29.4175C30.1513 23.1088 30.8434 23.2589 31.4938 23.5591C32.1443 23.8593 32.703 24.2762 33.17 24.8099C33.6369 24.2762 34.1956 23.8593 34.8461 23.5591C35.4965 23.2589 36.1886 23.1088 36.9225 23.1088H44.4275C44.7777 23.1088 45.0737 23.2297 45.3155 23.4715C45.5574 23.7133 45.6783 24.0094 45.6783 24.3596V44.3729C45.6783 44.7232 45.5574 45.0192 45.3155 45.261C45.0737 45.5028 44.7777 45.6238 44.4275 45.6238H34.4208ZM43.1766 43.1221V25.6104H36.9225C36.4722 25.6104 36.0552 25.723 35.6716 25.9482C35.288 26.1733 34.9837 26.4777 34.7585 26.8613C34.5334 27.2448 34.4208 27.6618 34.4208 28.1121V43.1221H43.1766ZM31.9191 43.1221V28.1121C31.9191 27.6618 31.8065 27.2448 31.5814 26.8613C31.3562 26.4777 31.0519 26.1733 30.6683 25.9482C30.2847 25.723 29.8678 25.6104 29.4175 25.6104H23.1633V43.1221H31.9191Z" fill="#FE7B21"/>
</g>
<defs>
<clipPath id="clip0_2311_288">
<rect width="30.02" height="31" fill="white" transform="matrix(1 0 0 -1 20.6616 51.1171)"/>
</clipPath>
</defs>
</svg>
