<svg width="21" height="21" viewBox="0 0 21 21" fill="none" xmlns="http://www.w3.org/2000/svg">
<g clip-path="url(#clip0_2311_91)">
<path d="M11.6784 17.0837L20.0117 10.4171L11.6784 3.75041V7.91707C10.5451 7.91707 9.46172 8.13374 8.42838 8.56707C7.4395 8.9893 6.55894 9.58652 5.78672 10.3587C5.0145 11.131 4.41727 12.0115 3.99505 13.0004C3.56172 14.0337 3.34505 15.1171 3.34505 16.2504C3.34505 16.4726 3.35616 16.7004 3.37838 16.9337C3.7895 16.1337 4.33394 15.431 5.01172 14.8254C5.6895 14.2199 6.45061 13.756 7.29505 13.4337C8.16172 13.0893 9.06727 12.9171 10.0117 12.9171H11.6784V17.0837Z" fill="#090E0D"/>
</g>
<defs>
<clipPath id="clip0_2311_91">
<rect width="20" height="20" fill="white" transform="matrix(-1 0 0 -1 20.0117 20.4171)"/>
</clipPath>
</defs>
</svg>
