<svg width="17" height="17" viewBox="0 0 17 17" fill="none" xmlns="http://www.w3.org/2000/svg">
<g clip-path="url(#clip0_2311_717)">
<path d="M0.681641 15.2771C0.681641 14.3082 0.926085 13.4104 1.41497 12.5838C1.88609 11.7838 2.52164 11.1482 3.32164 10.6771C4.14831 10.1882 5.04609 9.94377 6.01497 9.94377C6.98386 9.94377 7.88164 10.1882 8.70831 10.6771C9.50831 11.1482 10.1439 11.7838 10.615 12.5838C11.1039 13.4104 11.3483 14.3082 11.3483 15.2771H10.015C10.015 14.5571 9.83275 13.886 9.46831 13.2638C9.11275 12.6593 8.63275 12.1793 8.02831 11.8238C7.40609 11.4593 6.73497 11.2771 6.01497 11.2771C5.29497 11.2771 4.62386 11.4593 4.00164 11.8238C3.3972 12.1793 2.9172 12.6593 2.56164 13.2638C2.1972 13.886 2.01497 14.5571 2.01497 15.2771H0.681641ZM6.01497 9.2771C5.28609 9.2771 4.61497 9.09488 4.00164 8.73043C3.3972 8.37488 2.9172 7.89488 2.56164 7.29043C2.1972 6.6771 2.01497 6.00599 2.01497 5.2771C2.01497 4.54821 2.1972 3.8771 2.56164 3.26377C2.9172 2.65932 3.3972 2.17932 4.00164 1.82377C4.61497 1.45932 5.28609 1.2771 6.01497 1.2771C6.74386 1.2771 7.41497 1.45932 8.02831 1.82377C8.63275 2.17932 9.11275 2.65932 9.46831 3.26377C9.83275 3.8771 10.015 4.54821 10.015 5.2771C10.015 6.00599 9.83275 6.6771 9.46831 7.29043C9.11275 7.89488 8.63275 8.37488 8.02831 8.73043C7.41497 9.09488 6.74386 9.2771 6.01497 9.2771ZM6.01497 7.94377C6.49497 7.94377 6.93942 7.82377 7.34831 7.58377C7.7572 7.34377 8.08164 7.01932 8.32164 6.61043C8.56164 6.20154 8.68164 5.7571 8.68164 5.2771C8.68164 4.7971 8.56164 4.35265 8.32164 3.94377C8.08164 3.53488 7.7572 3.21043 7.34831 2.97043C6.93942 2.73043 6.49497 2.61043 6.01497 2.61043C5.53497 2.61043 5.09053 2.73043 4.68164 2.97043C4.27275 3.21043 3.94831 3.53488 3.70831 3.94377C3.46831 4.35265 3.34831 4.7971 3.34831 5.2771C3.34831 5.7571 3.46831 6.20154 3.70831 6.61043C3.94831 7.01932 4.27275 7.34377 4.68164 7.58377C5.09053 7.82377 5.53497 7.94377 6.01497 7.94377Z" fill="#00715D"/>
</g>
<defs>
<clipPath id="clip0_2311_717">
<rect width="16" height="16" fill="white" transform="matrix(1 0 0 -1 0.681641 16.2771)"/>
</clipPath>
</defs>
</svg>
