<svg width="71" height="71" viewBox="0 0 71 71" fill="none" xmlns="http://www.w3.org/2000/svg">
<rect x="0.681641" y="0.617065" width="70" height="70" rx="35" fill="#FFD502" fill-opacity="0.3"/>
<g clip-path="url(#clip0_2311_258)">
<path d="M25.665 32.49C26.0152 32.49 26.3112 32.6109 26.553 32.8527C26.7949 33.0946 26.9158 33.3906 26.9158 33.7408C27.9165 33.7408 28.8796 33.9034 29.8052 34.2287C30.7308 34.5539 31.5772 35.0167 32.3444 35.6171H35.0462C35.8634 35.6171 36.6348 35.7839 37.3602 36.1174C38.0857 36.451 38.7153 36.9096 39.249 37.4933H43.1766C44.4108 37.4933 45.5324 37.8186 46.5414 38.469C47.5504 39.1194 48.3134 39.9867 48.8304 41.0707C47.3294 43.0554 45.4448 44.6147 43.1766 45.7488C40.8251 46.9163 38.3234 47.5 35.6716 47.5C32.286 47.5 29.3424 46.8079 26.8407 45.4236C26.7573 45.6738 26.6072 45.8739 26.3904 46.024C26.1736 46.1741 25.9318 46.2492 25.665 46.2492H21.9125C21.5622 46.2492 21.2662 46.1283 21.0244 45.8864C20.7825 45.6446 20.6616 45.3486 20.6616 44.9983V33.7408C20.6616 33.3906 20.7825 33.0946 21.0244 32.8527C21.2662 32.6109 21.5622 32.49 21.9125 32.49H25.665ZM26.9158 36.2425V42.5217L26.9658 42.5717C29.284 44.1895 32.186 44.9983 35.6716 44.9983C37.5395 44.9983 39.3199 44.6564 41.0127 43.9726C42.7055 43.2889 44.194 42.3299 45.4782 41.0957L45.6283 40.9206L45.5032 40.7955C44.8861 40.3119 44.194 40.045 43.4268 39.995H43.1766H40.5499C40.6333 40.4119 40.675 40.8289 40.675 41.2458V42.4967H29.4175V39.995H37.9231L37.8731 39.8949C37.6229 39.3946 37.2685 38.9818 36.8099 38.6566C36.3512 38.3314 35.8301 38.1521 35.2463 38.1187H31.3938C30.81 37.535 30.1346 37.0764 29.3674 36.7428C28.6002 36.4093 27.783 36.2425 26.9158 36.2425ZM24.4141 34.9917H23.1633V43.7475H24.4141V34.9917ZM41.9258 27.4867C42.6096 27.4867 43.2392 27.6534 43.8145 27.987C44.3899 28.3206 44.8444 28.775 45.178 29.3504C45.5115 29.9258 45.6783 30.5554 45.6783 31.2392C45.6783 31.923 45.5115 32.5525 45.178 33.1279C44.8444 33.7033 44.3899 34.1578 43.8145 34.4913C43.2392 34.8249 42.6096 34.9917 41.9258 34.9917C41.242 34.9917 40.6124 34.8249 40.037 34.4913C39.4616 34.1578 39.0072 33.7033 38.6736 33.1279C38.3401 32.5525 38.1733 31.923 38.1733 31.2392C38.1733 30.5554 38.3401 29.9258 38.6736 29.3504C39.0072 28.775 39.4616 28.3206 40.037 27.987C40.6124 27.6534 41.242 27.4867 41.9258 27.4867ZM41.9258 29.9883C41.5756 29.9883 41.2795 30.1092 41.0377 30.3511C40.7959 30.5929 40.675 30.8889 40.675 31.2392C40.675 31.5894 40.7959 31.8854 41.0377 32.1273C41.2795 32.3691 41.5756 32.49 41.9258 32.49C42.276 32.49 42.5721 32.3691 42.8139 32.1273C43.0557 31.8854 43.1766 31.5894 43.1766 31.2392C43.1766 30.8889 43.0557 30.5929 42.8139 30.3511C42.5721 30.1092 42.276 29.9883 41.9258 29.9883ZM33.17 23.7342C33.8537 23.7342 34.4833 23.9009 35.0587 24.2345C35.6341 24.5681 36.0886 25.0225 36.4221 25.5979C36.7557 26.1733 36.9225 26.8029 36.9225 27.4867C36.9225 28.1705 36.7557 28.8 36.4221 29.3754C36.0886 29.9508 35.6341 30.4053 35.0587 30.7388C34.4833 31.0724 33.8537 31.2392 33.17 31.2392C32.4862 31.2392 31.8566 31.0724 31.2812 30.7388C30.7058 30.4053 30.2513 29.9508 29.9178 29.3754C29.5842 28.8 29.4175 28.1705 29.4175 27.4867C29.4175 26.8029 29.5842 26.1733 29.9178 25.5979C30.2513 25.0225 30.7058 24.5681 31.2812 24.2345C31.8566 23.9009 32.4862 23.7342 33.17 23.7342ZM33.17 26.2358C32.8197 26.2358 32.5237 26.3567 32.2819 26.5986C32.04 26.8404 31.9191 27.1364 31.9191 27.4867C31.9191 27.8369 32.04 28.1329 32.2819 28.3748C32.5237 28.6166 32.8197 28.7375 33.17 28.7375C33.5202 28.7375 33.8162 28.6166 34.058 28.3748C34.2999 28.1329 34.4208 27.8369 34.4208 27.4867C34.4208 27.1364 34.2999 26.8404 34.058 26.5986C33.8162 26.3567 33.5202 26.2358 33.17 26.2358Z" fill="#FFD502"/>
</g>
<defs>
<clipPath id="clip0_2311_258">
<rect width="30.02" height="31" fill="white" transform="matrix(1 0 0 -1 20.6616 51.1171)"/>
</clipPath>
</defs>
</svg>
