<svg width="677" height="707" viewBox="0 0 677 707" fill="none" xmlns="http://www.w3.org/2000/svg">
<g clip-path="url(#clip0_2311_1251)">
<rect width="676" height="706" transform="translate(0.681641 0.617065)" fill="#E5E3DF"/>
<path d="M284.916 369V339.909H295.825C298.06 339.909 299.935 340.326 301.45 341.159C302.975 341.992 304.125 343.138 304.902 344.597C305.688 346.045 306.081 347.693 306.081 349.54C306.081 351.405 305.688 353.062 304.902 354.511C304.116 355.96 302.956 357.101 301.422 357.935C299.888 358.759 297.999 359.17 295.754 359.17H288.524V354.838H295.044C296.351 354.838 297.421 354.611 298.254 354.156C299.088 353.702 299.703 353.077 300.101 352.281C300.508 351.486 300.712 350.572 300.712 349.54C300.712 348.508 300.508 347.598 300.101 346.812C299.703 346.027 299.083 345.416 298.24 344.98C297.407 344.535 296.332 344.312 295.016 344.312H290.186V369H284.916ZM315.573 356.216V369H310.431V339.909H315.46V350.889H315.715C316.227 349.658 317.017 348.687 318.087 347.977C319.167 347.258 320.54 346.898 322.207 346.898C323.722 346.898 325.043 347.215 326.17 347.849C327.297 348.484 328.168 349.412 328.783 350.634C329.408 351.855 329.721 353.347 329.721 355.108V369H324.579V355.903C324.579 354.436 324.2 353.295 323.442 352.48C322.694 351.656 321.643 351.244 320.289 351.244C319.38 351.244 318.566 351.443 317.846 351.841C317.136 352.229 316.577 352.793 316.17 353.531C315.772 354.27 315.573 355.165 315.573 356.216ZM344.479 369.426C342.349 369.426 340.502 368.957 338.94 368.02C337.377 367.082 336.165 365.771 335.303 364.085C334.451 362.4 334.025 360.43 334.025 358.176C334.025 355.922 334.451 353.948 335.303 352.253C336.165 350.558 337.377 349.241 338.94 348.304C340.502 347.366 342.349 346.898 344.479 346.898C346.61 346.898 348.457 347.366 350.019 348.304C351.582 349.241 352.789 350.558 353.641 352.253C354.503 353.948 354.934 355.922 354.934 358.176C354.934 360.43 354.503 362.4 353.641 364.085C352.789 365.771 351.582 367.082 350.019 368.02C348.457 368.957 346.61 369.426 344.479 369.426ZM344.508 365.307C345.663 365.307 346.629 364.99 347.406 364.355C348.182 363.711 348.76 362.849 349.138 361.77C349.527 360.69 349.721 359.488 349.721 358.162C349.721 356.827 349.527 355.619 349.138 354.54C348.76 353.451 348.182 352.584 347.406 351.94C346.629 351.296 345.663 350.974 344.508 350.974C343.324 350.974 342.339 351.296 341.553 351.94C340.777 352.584 340.194 353.451 339.806 354.54C339.427 355.619 339.238 356.827 339.238 358.162C339.238 359.488 339.427 360.69 339.806 361.77C340.194 362.849 340.777 363.711 341.553 364.355C342.339 364.99 343.324 365.307 344.508 365.307ZM370.193 347.182V351.159H357.651V347.182H370.193ZM360.747 341.955H365.889V362.438C365.889 363.129 365.993 363.659 366.202 364.028C366.42 364.388 366.704 364.634 367.054 364.767C367.404 364.9 367.793 364.966 368.219 364.966C368.541 364.966 368.834 364.942 369.099 364.895C369.374 364.848 369.582 364.805 369.724 364.767L370.591 368.787C370.316 368.882 369.923 368.986 369.412 369.099C368.91 369.213 368.295 369.279 367.565 369.298C366.277 369.336 365.117 369.142 364.085 368.716C363.053 368.28 362.234 367.608 361.628 366.699C361.031 365.79 360.738 364.653 360.747 363.29V341.955ZM383.776 369.426C381.646 369.426 379.799 368.957 378.237 368.02C376.674 367.082 375.462 365.771 374.6 364.085C373.748 362.4 373.322 360.43 373.322 358.176C373.322 355.922 373.748 353.948 374.6 352.253C375.462 350.558 376.674 349.241 378.237 348.304C379.799 347.366 381.646 346.898 383.776 346.898C385.907 346.898 387.754 347.366 389.316 348.304C390.879 349.241 392.086 350.558 392.938 352.253C393.8 353.948 394.231 355.922 394.231 358.176C394.231 360.43 393.8 362.4 392.938 364.085C392.086 365.771 390.879 367.082 389.316 368.02C387.754 368.957 385.907 369.426 383.776 369.426ZM383.805 365.307C384.96 365.307 385.926 364.99 386.702 364.355C387.479 363.711 388.057 362.849 388.435 361.77C388.824 360.69 389.018 359.488 389.018 358.162C389.018 356.827 388.824 355.619 388.435 354.54C388.057 353.451 387.479 352.584 386.702 351.94C385.926 351.296 384.96 350.974 383.805 350.974C382.621 350.974 381.636 351.296 380.85 351.94C380.074 352.584 379.491 353.451 379.103 354.54C378.724 355.619 378.535 356.827 378.535 358.162C378.535 359.488 378.724 360.69 379.103 361.77C379.491 362.849 380.074 363.711 380.85 364.355C381.636 364.99 382.621 365.307 383.805 365.307Z" fill="#7F8184"/>
</g>
<defs>
<clipPath id="clip0_2311_1251">
<rect x="0.681641" y="0.617065" width="676" height="706" rx="15" fill="white"/>
</clipPath>
</defs>
</svg>
