<svg width="53" height="53" viewBox="0 0 53 53" fill="none" xmlns="http://www.w3.org/2000/svg">
<rect x="0.681641" y="0.2771" width="52" height="52" rx="26" fill="#EEEEEE"/>
<g clip-path="url(#clip0_2311_302)">
<path d="M20.015 23.8437C20.2483 23.8437 20.4455 23.9243 20.6066 24.0854C20.7678 24.2465 20.8483 24.4437 20.8483 24.6771C21.515 24.6771 22.1566 24.7854 22.7733 25.0021C23.39 25.2188 23.9539 25.5271 24.465 25.9271H26.265C26.8094 25.9271 27.3233 26.0382 27.8066 26.2604C28.29 26.4826 28.7094 26.7882 29.065 27.1771H31.6816C32.5039 27.1771 33.2511 27.3937 33.9233 27.8271C34.5955 28.2604 35.1039 28.8326 35.4483 29.5437C34.4483 30.8771 33.1928 31.9215 31.6816 32.6771C30.115 33.4549 28.4483 33.8438 26.6816 33.8438C24.4261 33.8438 22.465 33.3826 20.7983 32.4604C20.7428 32.6271 20.6428 32.7604 20.4983 32.8604C20.3539 32.9604 20.1928 33.0104 20.015 33.0104H17.515C17.2816 33.0104 17.0844 32.9299 16.9233 32.7687C16.7622 32.6076 16.6816 32.4104 16.6816 32.1771V24.6771C16.6816 24.4437 16.7622 24.2465 16.9233 24.0854C17.0844 23.9243 17.2816 23.8437 17.515 23.8437H20.015ZM20.8483 26.3437V30.5271L20.8816 30.5604C22.4261 31.6382 24.3594 32.1771 26.6816 32.1771C27.9261 32.1771 29.1122 31.9493 30.24 31.4937C31.3678 31.0382 32.3594 30.3937 33.215 29.5604L33.315 29.4604L33.2316 29.3771C32.8205 29.0549 32.3594 28.8771 31.8483 28.8437H31.6816H29.9316C29.9872 29.1104 30.015 29.3882 30.015 29.6771V30.5104H22.515V28.8437H28.1816L28.1483 28.7771C27.9816 28.4437 27.7455 28.1687 27.44 27.9521C27.1344 27.7354 26.7872 27.616 26.3983 27.5937H23.8316C23.4428 27.2049 22.9928 26.8993 22.4816 26.6771C21.9705 26.4549 21.4261 26.3437 20.8483 26.3437ZM19.1816 25.5104H18.3483V31.3437H19.1816V25.5104ZM27.215 19.3271L27.515 19.6104L27.815 19.3271C28.0816 19.0604 28.3928 18.8799 28.7483 18.7854C29.1039 18.691 29.4622 18.691 29.8233 18.7854C30.1844 18.8799 30.4983 19.0604 30.765 19.3271C31.0316 19.5937 31.2094 19.9049 31.2983 20.2604C31.3872 20.616 31.3872 20.9715 31.2983 21.3271C31.2094 21.6826 31.0316 21.9937 30.765 22.2604L27.515 25.5104L24.2816 22.2604C24.015 21.9937 23.8344 21.6826 23.74 21.3271C23.6455 20.9715 23.6455 20.616 23.74 20.2604C23.8344 19.9049 24.015 19.5937 24.2816 19.3271C24.5483 19.0604 24.8594 18.8799 25.215 18.7854C25.5705 18.691 25.9261 18.691 26.2816 18.7854C26.6372 18.8799 26.9483 19.0604 27.215 19.3271ZM25.4483 20.4937C25.3816 20.5715 25.3428 20.6604 25.3316 20.7604C25.3205 20.8604 25.3428 20.9493 25.3983 21.0271L25.4483 21.0937L27.515 23.1437L29.5816 21.0937C29.6483 21.016 29.6872 20.9271 29.6983 20.8271C29.7094 20.7271 29.6872 20.6382 29.6316 20.5604L29.5816 20.4937C29.5039 20.4271 29.415 20.3882 29.315 20.3771C29.215 20.366 29.1261 20.3937 29.0483 20.4604L28.9816 20.4937L27.515 21.9771L26.0483 20.4937L25.9816 20.4604C25.9039 20.3937 25.815 20.366 25.715 20.3771C25.615 20.3882 25.5261 20.4271 25.4483 20.4937Z" fill="#090E0D"/>
</g>
<defs>
<clipPath id="clip0_2311_302">
<rect width="20" height="20" fill="white" transform="matrix(1 0 0 -1 16.6816 36.2771)"/>
</clipPath>
</defs>
</svg>
