<svg width="17" height="17" viewBox="0 0 17 17" fill="none" xmlns="http://www.w3.org/2000/svg">
<g clip-path="url(#clip0_2311_720)">
<path d="M4.1847 14.1571L0.651367 14.9437L1.43803 11.4104C0.913589 10.4415 0.651367 9.39706 0.651367 8.27706C0.651367 7.37039 0.824701 6.50373 1.17137 5.67706C1.50915 4.88595 1.98692 4.1815 2.6047 3.56373C3.22248 2.94595 3.92692 2.46817 4.71803 2.13039C5.5447 1.78373 6.41137 1.61039 7.31803 1.61039C8.2247 1.61039 9.09137 1.78373 9.91803 2.13039C10.7091 2.46817 11.4136 2.94595 12.0314 3.56373C12.6491 4.1815 13.1269 4.88595 13.4647 5.67706C13.8114 6.50373 13.9847 7.37039 13.9847 8.27706C13.9847 9.18373 13.8114 10.0504 13.4647 10.8771C13.1269 11.6682 12.6491 12.3726 12.0314 12.9904C11.4136 13.6082 10.7091 14.0859 9.91803 14.4237C9.09137 14.7704 8.2247 14.9437 7.31803 14.9437C6.19803 14.9437 5.15359 14.6815 4.1847 14.1571ZM4.37137 12.7571L4.81137 12.9837C5.59359 13.4015 6.42915 13.6104 7.31803 13.6104C8.28692 13.6104 9.1847 13.3659 10.0114 12.8771C10.8114 12.4059 11.4469 11.7704 11.918 10.9704C12.4069 10.1437 12.6514 9.24595 12.6514 8.27706C12.6514 7.30817 12.4069 6.41039 11.918 5.58372C11.4469 4.78373 10.8114 4.14817 10.0114 3.67706C9.1847 3.18817 8.28692 2.94373 7.31803 2.94373C6.34914 2.94373 5.45137 3.18817 4.6247 3.67706C3.8247 4.14817 3.18915 4.78373 2.71803 5.58372C2.22914 6.41039 1.9847 7.30817 1.9847 8.27706C1.9847 9.16595 2.19359 10.0015 2.61137 10.7837L2.83803 11.2237L2.41137 13.1837L4.37137 12.7571Z" fill="#00715D"/>
</g>
<defs>
<clipPath id="clip0_2311_720">
<rect width="16" height="16" fill="white" transform="matrix(1 0 0 -1 0.651367 16.2771)"/>
</clipPath>
</defs>
</svg>
