<svg width="21" height="21" viewBox="0 0 21 21" fill="none" xmlns="http://www.w3.org/2000/svg">
<g clip-path="url(#clip0_2311_498)">
<path d="M12.0085 17.0137L20.3418 10.347L12.0085 3.68034V7.847C10.8751 7.847 9.7918 8.06367 8.75846 8.497C7.76957 8.91923 6.88902 9.51645 6.1168 10.2887C5.34457 11.0609 4.74735 11.9414 4.32513 12.9303C3.8918 13.9637 3.67513 15.047 3.67513 16.1803C3.67513 16.4026 3.68624 16.6303 3.70846 16.8637C4.11957 16.0637 4.66402 15.3609 5.3418 14.7553C6.01957 14.1498 6.78069 13.6859 7.62513 13.3637C8.4918 13.0192 9.39735 12.847 10.3418 12.847H12.0085V17.0137Z" fill="#00715D"/>
</g>
<defs>
<clipPath id="clip0_2311_498">
<rect width="20" height="20" fill="white" transform="matrix(-1 0 0 -1 20.3418 20.347)"/>
</clipPath>
</defs>
</svg>
