<svg width="71" height="71" viewBox="0 0 71 71" fill="none" xmlns="http://www.w3.org/2000/svg">
<rect x="0.681641" y="0.617065" width="70" height="70" rx="35" fill="#D4FDC8"/>
<g clip-path="url(#clip0_2311_268)">
<path d="M33.17 36.8679C33.8537 36.8679 34.4833 37.0347 35.0587 37.3683C35.6341 37.7018 36.0886 38.1563 36.4221 38.7317C36.7557 39.3071 36.9225 39.9366 36.9225 40.6204C36.9225 41.1374 36.8224 41.6294 36.6223 42.0964C36.4221 42.5634 36.1386 42.972 35.7717 43.3222L33.3951 45.6238H36.9225V48.1254H29.4175V45.974L34.0455 41.521C34.2957 41.2709 34.4208 40.9707 34.4208 40.6204C34.4208 40.2702 34.2999 39.9742 34.058 39.7323C33.8162 39.4905 33.5202 39.3696 33.17 39.3696C32.8197 39.3696 32.5237 39.4905 32.2819 39.7323C32.04 39.9742 31.9191 40.2702 31.9191 40.6204H29.4175C29.4175 39.9366 29.5842 39.3071 29.9178 38.7317C30.2513 38.1563 30.7058 37.7018 31.2812 37.3683C31.8566 37.0347 32.4862 36.8679 33.17 36.8679ZM40.675 36.8679V41.8713H43.1766V36.8679H45.6783V48.1254H43.1766V44.3729H38.1733V36.8679H40.675ZM23.1633 35.6171C23.1633 37.1681 23.5052 38.6358 24.189 40.02C24.8394 41.3542 25.7483 42.4883 26.9158 43.4223V46.4493C25.665 45.7322 24.5684 44.8191 23.6261 43.71C22.6838 42.6009 21.9625 41.3626 21.4622 39.995C20.9285 38.5941 20.6616 37.1348 20.6616 35.6171H23.1633ZM33.17 23.1088C35.288 23.1088 37.281 23.6174 39.1489 24.6348C40.9335 25.6021 42.4011 26.9363 43.5519 28.6374C44.7193 30.3719 45.4114 32.2815 45.6283 34.3663H43.1016C42.9014 32.7318 42.3344 31.2475 41.4004 29.9133C40.4665 28.5791 39.2907 27.5367 37.8731 26.7862C36.4054 26.0024 34.8336 25.6104 33.1574 25.6104C31.4813 25.6104 29.9011 26.0107 28.4168 26.8112C26.9825 27.5784 25.8067 28.6374 24.8894 29.9883H28.1666V32.49H20.6616V24.985H23.1633V28.1121C24.3307 26.5611 25.7734 25.3436 27.4912 24.4597C29.259 23.5591 31.1519 23.1088 33.17 23.1088Z" fill="#63D044"/>
</g>
<defs>
<clipPath id="clip0_2311_268">
<rect width="30.02" height="31" fill="white" transform="matrix(1 0 0 -1 20.6616 51.1171)"/>
</clipPath>
</defs>
</svg>
