<svg width="29" height="30" viewBox="0 0 29 30" fill="none" xmlns="http://www.w3.org/2000/svg">
<path d="M14.6397 1.57374C15.3386 1.12041 16.1083 0.889019 16.9489 0.879574C17.7894 0.870131 18.5686 1.09207 19.2864 1.54541L25.1797 5.28541H27.5881C27.9847 5.28541 28.32 5.42235 28.5939 5.69624C28.8678 5.97013 29.0047 6.30541 29.0047 6.70207V19.4521C29.0047 19.8487 28.8678 20.184 28.5939 20.4579C28.32 20.7318 27.9847 20.8687 27.5881 20.8687H25.4347C25.4725 21.5487 25.3356 22.2051 25.0239 22.8379C24.7122 23.4707 24.2447 23.9665 23.6214 24.3254L16.3964 28.6604C15.9431 28.9437 15.4519 29.0807 14.9231 29.0712C14.3942 29.0618 13.9125 28.9249 13.4781 28.6604C12.9681 29.0949 12.3683 29.3262 11.6789 29.3546C10.9894 29.3829 10.3803 29.1799 9.85139 28.7454L2.56972 23.0221C2.02194 22.6065 1.67722 22.0729 1.53555 21.4212C1.39389 20.7696 1.46472 20.151 1.74805 19.5654C1.40805 19.301 1.14361 18.9704 0.95472 18.5737C0.765831 18.1771 0.671387 17.7615 0.671387 17.3271V6.70207C0.671387 6.30541 0.808331 5.97013 1.08222 5.69624C1.35611 5.42235 1.69139 5.28541 2.08805 5.28541H9.08639L14.6397 1.57374ZM3.75972 17.5254L4.72305 16.6754C5.30861 16.1654 5.965 15.8396 6.69222 15.6979C7.41944 15.5562 8.13722 15.5987 8.84555 15.8254C9.55389 16.0521 10.1631 16.4487 10.6731 17.0154L14.4981 21.2087C15.1214 21.8887 15.485 22.6868 15.5889 23.6029C15.6928 24.519 15.5181 25.3737 15.0647 26.1671L22.1481 21.9171C22.3558 21.7849 22.4928 21.6149 22.5589 21.4071C22.625 21.1993 22.6203 20.9915 22.5447 20.7837L16.2831 12.0004C16.1131 11.7549 15.8817 11.5849 15.5889 11.4904C15.2961 11.396 15.0081 11.3865 14.7247 11.4621L11.2114 12.5387C10.4558 12.7465 9.70028 12.756 8.94472 12.5671C8.18916 12.3782 7.52805 12.0099 6.96139 11.4621L6.56472 11.0371C6.16805 10.6593 5.91305 10.2012 5.79972 9.66291C5.68639 9.12457 5.71472 8.60985 5.88472 8.11874H3.50472V17.3271L3.75972 17.5254ZM17.7564 3.92541C17.5297 3.7743 17.2747 3.69874 16.9914 3.69874C16.7081 3.69874 16.4531 3.78374 16.2264 3.95374L8.54805 9.05374L8.97305 9.45041C9.16194 9.6393 9.38389 9.7668 9.63889 9.83291C9.89389 9.89902 10.1442 9.8943 10.3897 9.81874L13.9031 8.77041C14.7719 8.50596 15.6361 8.52013 16.4956 8.81291C17.355 9.10569 18.0492 9.62041 18.5781 10.3571L24.0747 18.0354H26.1714V8.11874H25.1797C24.6131 8.11874 24.1031 7.96763 23.6497 7.66541L17.7564 3.92541ZM6.59305 18.8004L4.29805 20.8121L11.5797 26.5354L12.5997 24.7787C12.7508 24.5143 12.8075 24.231 12.7697 23.9287C12.7319 23.6265 12.6092 23.3621 12.4014 23.1354L8.57639 18.9137C8.31194 18.6304 7.98611 18.4793 7.59889 18.4604C7.21166 18.4415 6.87639 18.5549 6.59305 18.8004Z" fill="white"/>
</svg>
