<svg width="35" height="35" viewBox="0 0 35 35" fill="none" xmlns="http://www.w3.org/2000/svg">
<g clip-path="url(#clip0_2311_52)">
<path d="M0.671387 31.9921C0.671387 29.9332 1.19083 28.0254 2.22972 26.2687C3.23083 24.5687 4.58139 23.2182 6.28139 22.2171C8.03805 21.1782 9.94583 20.6587 12.0047 20.6587C14.0636 20.6587 15.9714 21.1782 17.7281 22.2171C19.4281 23.2182 20.7786 24.5687 21.7797 26.2687C22.8186 28.0254 23.3381 29.9332 23.3381 31.9921H20.5047C20.5047 30.4621 20.1175 29.036 19.3431 27.7137C18.5875 26.4293 17.5675 25.4093 16.2831 24.6537C14.9608 23.8793 13.5347 23.4921 12.0047 23.4921C10.4747 23.4921 9.04861 23.8793 7.72639 24.6537C6.44194 25.4093 5.42194 26.4293 4.66639 27.7137C3.89194 29.036 3.50472 30.4621 3.50472 31.9921H0.671387ZM12.0047 19.2421C10.4558 19.2421 9.02972 18.8548 7.72639 18.0804C6.44194 17.3248 5.42194 16.3048 4.66639 15.0204C3.89194 13.7171 3.50472 12.291 3.50472 10.7421C3.50472 9.19318 3.89194 7.76707 4.66639 6.46373C5.42194 5.17929 6.44194 4.15929 7.72639 3.40373C9.02972 2.62929 10.4558 2.24206 12.0047 2.24206C13.5536 2.24206 14.9797 2.62929 16.2831 3.40373C17.5675 4.15929 18.5875 5.17929 19.3431 6.46373C20.1175 7.76707 20.5047 9.19318 20.5047 10.7421C20.5047 12.291 20.1175 13.7171 19.3431 15.0204C18.5875 16.3048 17.5675 17.3248 16.2831 18.0804C14.9797 18.8548 13.5536 19.2421 12.0047 19.2421ZM12.0047 16.4087C13.0247 16.4087 13.9692 16.1537 14.8381 15.6437C15.7069 15.1337 16.3964 14.4443 16.9064 13.5754C17.4164 12.7065 17.6714 11.7621 17.6714 10.7421C17.6714 9.72206 17.4164 8.77762 16.9064 7.90873C16.3964 7.03984 15.7069 6.3504 14.8381 5.8404C13.9692 5.3304 13.0247 5.0754 12.0047 5.0754C10.9847 5.0754 10.0403 5.3304 9.17139 5.8404C8.3025 6.3504 7.61305 7.03984 7.10305 7.90873C6.59305 8.77762 6.33805 9.72206 6.33805 10.7421C6.33805 11.7621 6.59305 12.7065 7.10305 13.5754C7.61305 14.4443 8.3025 15.1337 9.17139 15.6437C10.0403 16.1537 10.9847 16.4087 12.0047 16.4087Z" fill="white"/>
</g>
<defs>
<clipPath id="clip0_2311_52">
<rect width="34.02" height="34" fill="white" transform="matrix(1 0 0 -1 0.661621 34.1171)"/>
</clipPath>
</defs>
</svg>
